<?xml version="1.0" encoding="UTF-8" standalone="no"?>
<!-- Generator: Adobe Illustrator 25.2.3, SVG Export Plug-In . SVG Version: 6.00 Build 0)  -->

<svg
   version="1.0"
   id="svg10799"
   x="0px"
   y="0px"
   width="31.5642px"
   height="28px"
   viewBox="0 0 31.5642 28"
   enable-background="new 0 0 31.5642 28"
   xml:space="preserve"
   sodipodi:docname="BefacoSwitchHoriz_1.svg"
   inkscape:version="1.2.2 (732a01da63, 2022-12-09)"
   xmlns:inkscape="http://www.inkscape.org/namespaces/inkscape"
   xmlns:sodipodi="http://sodipodi.sourceforge.net/DTD/sodipodi-0.dtd"
   xmlns="http://www.w3.org/2000/svg"
   xmlns:svg="http://www.w3.org/2000/svg"><defs
   id="defs80716"><linearGradient
     id="path5961-3_1_"
     gradientUnits="userSpaceOnUse"
     x1="852.9314"
     y1="-5060.4058"
     x2="865.47662"
     y2="-5060.4058"
     gradientTransform="rotate(90,-1655.7864,-3690.7917)">
		<stop
   offset="0"
   style="stop-color:#C40D0D"
   id="stop81360" />
		<stop
   offset="1"
   style="stop-color:#730000"
   id="stop81362" />
	</linearGradient><linearGradient
     id="path5961-3_2_"
     gradientUnits="userSpaceOnUse"
     x1="853.59491"
     y1="-5060.4058"
     x2="864.81305"
     y2="-5060.4058"
     gradientTransform="rotate(90,-1655.7864,-3690.7917)">
		<stop
   offset="0"
   style="stop-color:#ED0000"
   id="stop81367" />
		<stop
   offset="1"
   style="stop-color:#A10000"
   id="stop81369" />
	</linearGradient><linearGradient
     id="SVGID_7_-8"
     gradientUnits="userSpaceOnUse"
     x1="110.17155"
     y1="225.87537"
     x2="110.17155"
     y2="232.56082"
     gradientTransform="matrix(-1,0,0,0.50871,204.62935,-29.571759)">
	<stop
   offset="0"
   style="stop-color:#FDFDFF"
   id="stop81374" />
	<stop
   offset="1"
   style="stop-color:#FCFEFF;stop-opacity:0"
   id="stop81376" />
</linearGradient></defs>
<sodipodi:namedview
   bordercolor="#666666"
   borderopacity="1.0"
   fit-margin-bottom="0"
   fit-margin-left="0"
   fit-margin-right="0"
   fit-margin-top="0"
   id="base"
   inkscape:current-layer="layer1_00000073722336579382686870000003477961239234504360_"
   inkscape:cx="11.237947"
   inkscape:cy="15.909903"
   inkscape:document-rotation="0"
   inkscape:document-units="mm"
   inkscape:pageopacity="0.0"
   inkscape:pageshadow="2"
   inkscape:window-height="1017"
   inkscape:window-maximized="1"
   inkscape:window-width="1920"
   inkscape:window-x="-8"
   inkscape:window-y="-8"
   inkscape:zoom="7.9195959"
   pagecolor="#ffffff"
   showgrid="false"
   units="px"
   inkscape:showpageshadow="2"
   inkscape:pagecheckerboard="0"
   inkscape:deskcolor="#d1d1d1">
	</sodipodi:namedview>
<g
   id="g80661"
   style="display:inline">
	<g
   id="g80604">
		
			<linearGradient
   id="SVGID_1_"
   gradientUnits="userSpaceOnUse"
   x1="-598.47284"
   y1="1787.6093"
   x2="-574.27472"
   y2="1787.6093"
   gradientTransform="matrix(0,1,1,0,-1771.8412,600.39905)">
			<stop
   offset="0"
   style="stop-color:#ffffff;stop-opacity:1;"
   id="stop80597" />
			<stop
   offset="1"
   style="stop-color:#a4a4a4;stop-opacity:1;"
   id="stop80599" />
		</linearGradient>
		<path
   fill="url(#SVGID_1_)"
   d="m 15.76835,26.12431 c -6.67163,0 -12.09957,-5.42742 -12.09957,-12.09853 0,-6.67215 5.42794,-12.09957 12.09957,-12.09957 6.67163,0 12.09905,5.42742 12.09905,12.09957 0,6.67111 -5.42742,12.09853 -12.09905,12.09853 z"
   id="path80602"
   style="display:inline" />
	</g>
	<circle
   fill="#212121"
   cx="15.76809"
   cy="14.03738"
   r="11.42899"
   id="circle80606"
   style="display:inline;fill:#ffffff;fill-opacity:1" />
	<linearGradient
   id="SVGID_2_"
   gradientUnits="userSpaceOnUse"
   x1="15.76809"
   y1="2.6083901"
   x2="15.76809"
   y2="25.46637">
		<stop
   offset="0.01117"
   style="stop-color:#5E5E5E"
   id="stop80608" />
		<stop
   offset="1"
   style="stop-color:#171717"
   id="stop80610" />
	</linearGradient>
	<circle
   opacity="0.22"
   fill="url(#SVGID_2_)"
   cx="15.76809"
   cy="14.03738"
   r="11.42899"
   id="circle80613"
   style="display:inline" />
	
		<linearGradient
   id="SVGID_3_"
   gradientUnits="userSpaceOnUse"
   x1="62.774342"
   y1="-52.787029"
   x2="62.774342"
   y2="-49.916649"
   gradientTransform="matrix(1,0,0,-1,-47.00625,-37.32658)">
		<stop
   offset="0"
   style="stop-color:#ffffff;stop-opacity:1;"
   id="stop80615" />
		<stop
   offset="1"
   style="stop-color:#8d8d8d;stop-opacity:1;"
   id="stop80617" />
	</linearGradient>
	<path
   fill="url(#SVGID_3_)"
   d="M 4.45296,12.59007 4.00815,13.0216 c -0.45542,0.59936 -0.45217,1.4297 0.00794,2.02547 l 0.4123,0.38249 22.66298,0.03089 0.41661,-0.39782 c 0.47608,-0.59303 0.47954,-1.43627 0.0083,-2.03318 l -0.42495,-0.41514 z"
   id="path80620"
   style="display:inline" />
	
		<linearGradient
   id="SVGID_4_"
   gradientUnits="userSpaceOnUse"
   x1="-1237.1975"
   y1="-379.81543"
   x2="-1219.1052"
   y2="-379.81543"
   gradientTransform="matrix(0,-1,-1,0,-364.04718,-1214.1261)">
		<stop
   offset="0"
   style="stop-color:#ffffff;stop-opacity:1;"
   id="stop80622" />
		<stop
   offset="1"
   style="stop-color:#515151;stop-opacity:1;"
   id="stop80624" />
	</linearGradient>
	<circle
   fill="url(#SVGID_4_)"
   cx="15.76825"
   cy="14.02522"
   r="9.0461597"
   id="circle80627"
   style="display:inline" />
	<g
   id="g80659">
		<circle
   fill="#1f1f1f"
   cx="15.76825"
   cy="14.02522"
   r="8.4541597"
   id="circle80629" />
		<path
   opacity="0.22"
   d="m 15.76825,6.12535 c 4.36155,0 7.89729,3.91537 7.89729,8.74522 0,4.82985 -3.53574,9.61471 -7.89729,9.61471 -4.36155,0 -7.89729,-4.78486 -7.89729,-9.61471 0,-4.82985 3.53574,-8.74522 7.89729,-8.74522 z"
   id="path80631" />
		
			<linearGradient
   id="SVGID_5_"
   gradientUnits="userSpaceOnUse"
   x1="-1880.7817"
   y1="23.65431"
   x2="-1880.7817"
   y2="7.8544302"
   gradientTransform="rotate(180,-932.50671,14.88983)">
			<stop
   offset="0"
   style="stop-color:#FFFEFE"
   id="stop80633" />
			<stop
   offset="1"
   style="stop-color:#545454"
   id="stop80635" />
		</linearGradient>
		<circle
   fill="url(#SVGID_5_)"
   cx="15.76825"
   cy="14.02529"
   r="7.89994"
   id="circle80638" />
		<circle
   fill="#e0e0e0"
   cx="15.76825"
   cy="14.02529"
   r="7.0394301"
   id="circle80640" />
		<g
   opacity="0.43"
   id="g80648">
			<path
   fill="#404040"
   d="m 15.76826,6.59017 c 4.32176,0 7.82756,3.37184 7.89131,7.55308 5.7e-4,-0.03968 0.0059,-0.07816 0.0059,-0.11797 0,-4.36302 -3.53568,-7.8999 -7.89725,-7.8999 -4.36157,0 -7.89731,3.53688 -7.89731,7.8999 0,0.03981 0.00537,0.07829 0.00594,0.11797 0.06375,-4.18124 3.56961,-7.55308 7.89137,-7.55308 z"
   id="path80642" />
			<path
   opacity="0.28"
   fill="#404040"
   d="m 7.87688,14.14325 c -5.7e-4,0.03854 -0.00594,0.07582 -0.00594,0.11449 0,4.23463 3.53575,7.66751 7.89731,7.66751 -4.32175,0 -7.82761,-3.47395 -7.89137,-7.782 z"
   id="path80644" />
			<path
   opacity="0.28"
   fill="#404040"
   d="m 15.76826,21.92525 c 4.36157,0 7.89725,-3.43288 7.89725,-7.66751 0,-0.03867 -0.0054,-0.07595 -0.0059,-0.11449 -0.06376,4.30805 -3.56955,7.782 -7.89131,7.782 z"
   id="path80646" />
		</g>
		
			<linearGradient
   id="SVGID_6_"
   gradientUnits="userSpaceOnUse"
   x1="-1880.7817"
   y1="10.04605"
   x2="-1880.7817"
   y2="21.46269"
   gradientTransform="rotate(180,-932.50671,14.88983)">
			<stop
   offset="0"
   style="stop-color:#FFFEFE"
   id="stop80650" />
			<stop
   offset="1"
   style="stop-color:#706C6C"
   id="stop80652" />
		</linearGradient>
		<circle
   fill="url(#SVGID_6_)"
   cx="15.76825"
   cy="14.02529"
   r="5.7083201"
   id="circle80655"
   style="display:inline" />
		<circle
   cx="15.76825"
   cy="14.02522"
   r="5.0387402"
   id="circle80657"
   style="display:inline" />
	</g>
</g>
<g
   id="layer1_00000073722336579382686870000003477961239234504360_"
   transform="translate(-78.695511,-76.621942)"
   inkscape:groupmode="layer"
   inkscape:label="Layer 1">
	
	
		<linearGradient
   id="SVGID_7_"
   gradientUnits="userSpaceOnUse"
   x1="-2870.85156"
   y1="5533.0127"
   x2="-2870.85156"
   y2="5525.74707"
   gradientTransform="matrix(0 -1 -0.50871 0 2901.81323 -2780.47314)">
		<stop
   offset="0"
   style="stop-color:#FDFDFF"
   id="stop80665" />
		<stop
   offset="1"
   style="stop-color:#FCFEFF;stop-opacity:0"
   id="stop80667" />
	</linearGradient>
	
		<ellipse
   opacity="0.3"
   fill="url(#SVGID_7_)"
   enable-background="new    "
   cx="88.962273"
   cy="90.378471"
   rx="1.8480901"
   ry="3.52824"
   id="ellipse80670"
   style="display:inline" />
	
		<linearGradient
   id="SVGID_8_"
   gradientUnits="userSpaceOnUse"
   x1="2499.56763"
   y1="3070.41943"
   x2="2499.56763"
   y2="3062.7478"
   gradientTransform="matrix(0 1 -1 0 3160.06299 -2409.18896)">
		<stop
   offset="0"
   style="stop-color:#858484"
   id="stop80672" />
		<stop
   offset="1"
   style="stop-color:#363636"
   id="stop80674" />
	</linearGradient>
	
	
		<linearGradient
   id="SVGID_9_"
   gradientUnits="userSpaceOnUse"
   x1="2493.08521"
   y1="3072.58569"
   x2="2506.0498"
   y2="3072.58569"
   gradientTransform="matrix(0 1 -1 0 3160.06299 -2409.18896)">
		<stop
   offset="0"
   style="stop-color:#C40D0D"
   id="stop80679" />
		<stop
   offset="1"
   style="stop-color:#730000"
   id="stop80681" />
	</linearGradient>
	
	
		<linearGradient
   id="SVGID_10_"
   gradientUnits="userSpaceOnUse"
   x1="2499.56763"
   y1="3062.66919"
   x2="2499.56763"
   y2="3064.62646"
   gradientTransform="matrix(0 1 -1 0 3160.06299 -2409.18896)">
		<stop
   offset="0"
   style="stop-color:#000000"
   id="stop80686" />
		<stop
   offset="1"
   style="stop-color:#000000;stop-opacity:0"
   id="stop80688" />
	</linearGradient>
	<polygon
   fill="url(#SVGID_10_)"
   points="97.39389,92.60281 97.39389,88.15412 95.43664,87.02668 95.43664,93.73025  "
   id="polygon80691" />
	
		<linearGradient
   id="SVGID_11_"
   gradientUnits="userSpaceOnUse"
   x1="-936.41638"
   y1="84.50889"
   x2="-936.41638"
   y2="96.18157"
   gradientTransform="matrix(-1 0 0 1 -845.40991 0)">
		<stop
   offset="0"
   style="stop-color:#ED0000"
   id="stop80693" />
		<stop
   offset="0.98324"
   style="stop-color:#8C0000"
   id="stop80695" />
	</linearGradient>
	
	
	
		<linearGradient
   id="SVGID_12_"
   gradientUnits="userSpaceOnUse"
   x1="491.34482"
   y1="-444.15347"
   x2="491.34482"
   y2="-450.69043"
   gradientTransform="matrix(1,0,0,-0.50871,-407.23485,-148.37769)">
		<stop
   offset="0"
   style="stop-color:#FDFDFF"
   id="stop80707" />
		<stop
   offset="1"
   style="stop-color:#FCFEFF;stop-opacity:0"
   id="stop80709" />
	</linearGradient>
	
		
<path
   opacity="0.28"
   d="m 94.457952,101.66953 c -3.62677,0 -6.56685,-3.307032 -6.56685,-7.386472 0,-4.07944 2.94008,-8.12087 6.56685,-8.12087 3.62677,0 6.566848,4.04144 6.566848,8.12087 0,4.07943 -2.940078,7.386472 -6.566848,7.386472 z"
   id="path81358" /><g
   id="g5959-5_00000170995713031882418020000004908213592592228759_"
   transform="translate(380.6305,1266.5725)">
	
		<linearGradient
   id="linearGradient82028"
   gradientUnits="userSpaceOnUse"
   x1="852.9314"
   y1="-5060.4058"
   x2="865.47662"
   y2="-5060.4058"
   gradientTransform="rotate(90,-1655.7864,-3690.7917)">
		<stop
   offset="0"
   style="stop-color:#C40D0D"
   id="stop82024" />
		<stop
   offset="1"
   style="stop-color:#730000"
   id="stop82026" />
	</linearGradient>
	
		<path
   id="path5961-3_00000098184121052982549500000015386937442825303688_"
   inkscape:connector-curvature="0"
   fill="url(#path5961-3_1_)"
   d="m -286.17206,-1182.074 c 3.46399,0 6.27213,2.8091 6.27213,6.2731 0,3.4634 -2.80814,6.2721 -6.27216,6.2721 -3.46536,0 -6.27307,-2.8087 -6.27307,-6.2721 0,-3.464 2.80771,-6.2731 6.2731,-6.2731"
   style="fill:url(#path5961-3_1_)" />
</g><g
   id="g5959-5_00000110467777809225810530000016302487659863728029_"
   transform="translate(380.6305,1266.5725)">
	
		<linearGradient
   id="linearGradient82036"
   gradientUnits="userSpaceOnUse"
   x1="853.59491"
   y1="-5060.4058"
   x2="864.81305"
   y2="-5060.4058"
   gradientTransform="rotate(90,-1655.7864,-3690.7917)">
		<stop
   offset="0"
   style="stop-color:#ED0000"
   id="stop82032" />
		<stop
   offset="1"
   style="stop-color:#A10000"
   id="stop82034" />
	</linearGradient>
	
		<path
   id="path5961-3_00000031187681983590957270000013594382986680798105_"
   inkscape:connector-curvature="0"
   fill="url(#path5961-3_2_)"
   d="m -286.17212,-1181.4105 c 3.09756,0 5.60867,2.5119 5.60867,5.6095 0,3.0972 -2.51111,5.6086 -5.60867,5.6086 -3.09882,0 -5.6095,-2.5114 -5.6095,-5.6086 0,-3.0976 2.51068,-5.6095 5.6095,-5.6095"
   style="fill:url(#path5961-3_2_)" />
</g><ellipse
   opacity="0.3"
   fill="url(#SVGID_7_)"
   cx="94.457787"
   cy="87.034531"
   rx="3.2464499"
   ry="1.70049"
   id="ellipse81379"
   style="fill:url(#SVGID_7_-8)" /></g>
</svg>
