<?xml version="1.0" encoding="UTF-8" standalone="no"?>
<!-- Generator: Adobe Illustrator 25.4.1, SVG Export Plug-In . SVG Version: 6.00 Build 0)  -->

<svg
   version="1.0"
   id="svg10799"
   inkscape:version="1.3.2 (091e20e, 2023-11-25, custom)"
   x="0px"
   y="0px"
   width="27.99345px"
   height="31.5642px"
   viewBox="0 0 27.99345 31.5642"
   enable-background="new 0 0 27.99345 31.5642"
   xml:space="preserve"
   sodipodi:docname="BefacoSwitchVertical_0.svg"
   xmlns:inkscape="http://www.inkscape.org/namespaces/inkscape"
   xmlns:sodipodi="http://sodipodi.sourceforge.net/DTD/sodipodi-0.dtd"
   xmlns="http://www.w3.org/2000/svg"
   xmlns:svg="http://www.w3.org/2000/svg"><defs
   id="defs27" />
<sodipodi:namedview
   bordercolor="#666666"
   borderopacity="1.0"
   fit-margin-bottom="0"
   fit-margin-left="0"
   fit-margin-right="0"
   fit-margin-top="0"
   id="base"
   inkscape:current-layer="svg10799"
   inkscape:cx="12.484854"
   inkscape:cy="17.50405"
   inkscape:document-units="mm"
   inkscape:pageopacity="0.0"
   inkscape:pageshadow="2"
   inkscape:window-height="1401"
   inkscape:window-maximized="0"
   inkscape:window-width="2560"
   inkscape:window-x="0"
   inkscape:window-y="0"
   inkscape:zoom="31.678384"
   pagecolor="#ffffff"
   showgrid="false"
   units="px"
   inkscape:showpageshadow="2"
   inkscape:pagecheckerboard="0"
   inkscape:deskcolor="#d1d1d1">
	</sodipodi:namedview>
<g
   id="g14">
	<g
   id="g2">
		
			<linearGradient
   id="SVGID_1_"
   gradientUnits="userSpaceOnUse"
   x1="-601.75171"
   y1="1790.22363"
   x2="-576.25226"
   y2="1790.22363"
   gradientTransform="matrix(0 1 1 0 -1776.22693 604.78479)">
			<stop
   offset="0"
   style="stop-color:#828181"
   id="stop1" />
			<stop
   offset="1"
   style="stop-color:#575757"
   id="stop2" />
		</linearGradient>
		
	</g>
	
		<linearGradient
   id="SVGID_00000096777038531252213230000009804720766335326622_"
   gradientUnits="userSpaceOnUse"
   x1="1062.53003"
   y1="-4087.45093"
   x2="1086.75305"
   y2="-4087.45093"
   gradientTransform="matrix(0 1 -1 0 -4073.4541 -1058.84595)">
		<stop
   offset="0.00559"
   style="stop-color:#FFFFFF"
   id="stop3" />
		<stop
   offset="1"
   style="stop-color:#7A7A7A"
   id="stop4" />
	</linearGradient>
	<circle
   fill="url(#SVGID_00000096777038531252213230000009804720766335326622_)"
   cx="13.99672"
   cy="15.79557"
   r="12.11152"
   id="circle4" />
	<circle
   fill="#E0E0E0"
   cx="13.99672"
   cy="15.79557"
   r="11.39265"
   id="circle5" />
	
		<linearGradient
   id="SVGID_00000152252859137990743480000007651465109097556108_"
   gradientUnits="userSpaceOnUse"
   x1="61.00904"
   y1="-49.85027"
   x2="61.00904"
   y2="-46.82552"
   gradientTransform="matrix(1 0 0 -1 -47.00625 -32.5551)">
		<stop
   offset="0"
   style="stop-color:#FFFBFD"
   id="stop5" />
		<stop
   offset="1"
   style="stop-color:#808080"
   id="stop6" />
	</linearGradient>
	<path
   fill="url(#SVGID_00000152252859137990743480000007651465109097556108_)"
   d="M2.72933,14.27042L2.2606,14.72517   c-0.47991,0.63159-0.47648,1.50659,0.00837,2.13439l0.43448,0.40306l22.58141,0.03255l0.43901-0.41921   c0.50169-0.62492,0.50533-1.51351,0.00878-2.14253l-0.4478-0.43746L2.72933,14.27042z"
   id="path6" />
	
		<linearGradient
   id="SVGID_00000125568419862787530720000009955595133921108374_"
   gradientUnits="userSpaceOnUse"
   x1="-1239.05579"
   y1="-377.65833"
   x2="-1219.99048"
   y2="-377.65833"
   gradientTransform="matrix(0 -1 -1 0 -363.66144 -1213.74036)">
		<stop
   offset="0"
   style="stop-color:#B0AEAE"
   id="stop7" />
		<stop
   offset="1"
   style="stop-color:#616161"
   id="stop8" />
	</linearGradient>
	<circle
   fill="url(#SVGID_00000125568419862787530720000009955595133921108374_)"
   cx="13.99689"
   cy="15.78276"
   r="9.53265"
   id="circle8" />
	<circle
   fill="#1F1F1F"
   cx="13.99689"
   cy="15.78276"
   r="8.90881"
   id="circle9" />
	<path
   opacity="0.28"
   d="M13.99764,26.80466c-4.54871,0-8.23616-4.01955-8.23616-8.97792s3.68746-9.87056,8.23616-9.87056   s8.23616,4.91218,8.23616,9.87056S18.54635,26.80466,13.99764,26.80466z"
   id="path9" />
	
		<linearGradient
   id="SVGID_00000160170103584361779110000012459129992462676407_"
   gradientUnits="userSpaceOnUse"
   x1="-1883.01038"
   y1="27.0931"
   x2="-1883.01038"
   y2="10.44352"
   gradientTransform="matrix(-1 0 0 -1 -1869.01343 34.55115)">
		<stop
   offset="0"
   style="stop-color:#FFFEFE"
   id="stop9" />
		<stop
   offset="1"
   style="stop-color:#545454"
   id="stop10" />
	</linearGradient>
	<circle
   fill="url(#SVGID_00000160170103584361779110000012459129992462676407_)"
   cx="13.99689"
   cy="15.78284"
   r="8.32479"
   id="circle10" />
	<circle
   fill="#E0E0E0"
   cx="13.99689"
   cy="15.78284"
   r="7.41801"
   id="circle11" />
	<g
   opacity="0.43"
   id="g12">
		<path
   opacity="0.28"
   fill="#404040"
   d="M5.68113,15.90713c-0.0006,0.04062-0.00626,0.0799-0.00626,0.12065    c0,4.46236,3.72589,8.07986,8.32202,8.07986C9.44272,24.10764,5.74832,20.44687,5.68113,15.90713z"
   id="path11" />
		<path
   opacity="0.28"
   fill="#404040"
   d="M13.9969,24.10764c4.59613,0,8.32196-3.6175,8.32196-8.07986    c0-0.04075-0.00566-0.08003-0.00626-0.12065C22.24541,20.44687,18.55108,24.10764,13.9969,24.10764z"
   id="path12" />
	</g>
	
		<linearGradient
   id="SVGID_00000026141003703015952050000003453255544830421139_"
   gradientUnits="userSpaceOnUse"
   x1="-1883.01038"
   y1="12.75301"
   x2="-1883.01038"
   y2="24.78362"
   gradientTransform="matrix(-1 0 0 -1 -1869.01343 34.55115)">
		<stop
   offset="0"
   style="stop-color:#FFFEFE"
   id="stop12" />
		<stop
   offset="1"
   style="stop-color:#706C6C"
   id="stop13" />
	</linearGradient>
	<circle
   fill="url(#SVGID_00000026141003703015952050000003453255544830421139_)"
   cx="13.99689"
   cy="15.78284"
   r="6.01531"
   id="circle13" />
	<circle
   cx="13.99689"
   cy="15.78276"
   r="5.30972"
   id="circle14" />
</g>
<path
   opacity="0.28"
   d="M14.0028,31.5642c-3.28014,0-5.93923-3.19316-5.93923-7.13211s2.65908-7.84122,5.93923-7.84122  s5.93923,3.90227,5.93923,7.84122S17.28295,31.5642,14.0028,31.5642z"
   id="path14" />
<linearGradient
   id="SVGID_00000065773025901285426760000012969200050422914733_"
   gradientUnits="userSpaceOnUse"
   x1="13.99672"
   y1="-72.39881"
   x2="13.99672"
   y2="-79.82219"
   gradientTransform="matrix(1 0 0 -1 0 -60.44819)">
	<stop
   offset="0"
   style="stop-color:#858484"
   id="stop14" />
	<stop
   offset="1"
   style="stop-color:#363636"
   id="stop15" />
</linearGradient>
<circle
   fill="url(#SVGID_00000065773025901285426760000012969200050422914733_)"
   cx="13.99672"
   cy="15.66231"
   r="3.71169"
   id="circle15" />
<linearGradient
   id="SVGID_00000012444713953208277950000016664908420957321654_"
   gradientUnits="userSpaceOnUse"
   x1="107.93118"
   y1="230.67648"
   x2="107.93118"
   y2="233.87488"
   gradientTransform="matrix(-1 0 0 0.50871 121.93398 -105.02132)">
	<stop
   offset="0"
   style="stop-color:#FDFDFF"
   id="stop16" />
	<stop
   offset="1"
   style="stop-color:#FCFEFF;stop-opacity:0"
   id="stop17" />
</linearGradient>
<ellipse
   opacity="0.2"
   fill="url(#SVGID_00000012444713953208277950000016664908420957321654_)"
   cx="14.0028"
   cy="13.14042"
   rx="1.34428"
   ry="0.81353"
   id="ellipse17" />
<linearGradient
   id="SVGID_00000150823890337663003440000017085013996016341916_"
   gradientUnits="userSpaceOnUse"
   x1="13.99672"
   y1="-73.4698"
   x2="13.99672"
   y2="-90.36673"
   gradientTransform="matrix(1 0 0 -1 0 -60.44819)">
	<stop
   offset="0"
   style="stop-color:#C40D0D"
   id="stop18" />
	<stop
   offset="1"
   style="stop-color:#730000"
   id="stop19" />
</linearGradient>
<path
   fill="url(#SVGID_00000150823890337663003440000017085013996016341916_)"
   d="M19.79414,21.25261  c0.30488,0.73767,0.4752,1.54511,0.4752,2.39285c0,3.46396-2.80819,6.27308-6.27214,6.27308  c-3.46542,0-6.27308-2.80912-6.27308-6.27308c0-0.6346,0.09608-1.24649,0.27139-1.8239H7.99357l1.28498-5.0383h0.00885  c0.49105-2.15182,2.40796-3.76165,4.70965-3.76165c2.30083,0,4.21774,1.60983,4.70885,3.76165h0.00906L19.79414,21.25261z"
   id="path19" />
<linearGradient
   id="SVGID_00000057133146055382674790000003113578813706256522_"
   gradientUnits="userSpaceOnUse"
   x1="13.99672"
   y1="20.13625"
   x2="13.99672"
   y2="18.24235">
	<stop
   offset="0"
   style="stop-color:#000000"
   id="stop20" />
	<stop
   offset="1"
   style="stop-color:#000000;stop-opacity:0"
   id="stop21" />
</linearGradient>
<polygon
   fill="url(#SVGID_00000057133146055382674790000003113578813706256522_)"
   points="16.1491,20.13625 11.84435,20.13625   10.75339,18.24235 17.24006,18.24235 "
   id="polygon21" />
<path
   fill="#ED0000"
   d="M19.61207,21.80263h-2.99556c-0.74298,0.52054-1.64333,0.83124-2.61928,0.83124  c-0.97632,0-1.87692-0.3107-2.61997-0.83124H8.31707l1.21577-4.76696h0.00838c0.4646-2.03593,2.27828-3.55906,4.45601-3.55906  c2.17692,0,3.99059,1.52314,4.45526,3.55906h0.00857L19.61207,21.80263z"
   id="path21" />
<g
   id="g5959-5_00000078752244077516203560000005940171760620210358_"
   transform="translate(301.93513,1189.951)">
	
		<linearGradient
   id="path5961-3_00000168093514703044495810000000730023832126520232_"
   gradientUnits="userSpaceOnUse"
   x1="835.43243"
   y1="-5190.39795"
   x2="847.302"
   y2="-5190.39795"
   gradientTransform="matrix(0 1 1 0 4902.45947 -2007.78955)">
		<stop
   offset="0"
   style="stop-color:#ED0000"
   id="stop22" />
		<stop
   offset="1"
   style="stop-color:#A10000"
   id="stop23" />
	</linearGradient>
	
		<path
   id="path5961-3_00000008146676893465136370000017095637066882825642_"
   inkscape:connector-curvature="0"
   fill="url(#path5961-3_00000168093514703044495810000000730023832126520232_)"
   d="   M-287.93866-1172.35706c-3.27747,0-5.93436,2.65784-5.93436,5.93518c0,3.27698,2.65692,5.93433,5.93436,5.93433   c3.27875,0,5.93524-2.65735,5.93524-5.93433C-282.00345-1169.69922-284.65991-1172.35706-287.93866-1172.35706" />
</g>
<linearGradient
   id="SVGID_00000175312440177604282810000005772420987047474309_"
   gradientUnits="userSpaceOnUse"
   x1="107.93177"
   y1="241.89079"
   x2="107.93177"
   y2="248.21619"
   gradientTransform="matrix(-1 0 0 0.50871 121.93398 -105.02132)">
	<stop
   offset="0"
   style="stop-color:#FDFDFF"
   id="stop24" />
	<stop
   offset="1"
   style="stop-color:#FCFEFF;stop-opacity:0"
   id="stop25" />
</linearGradient>
<ellipse
   opacity="0.2"
   fill="url(#SVGID_00000175312440177604282810000005772420987047474309_)"
   cx="14.0022"
   cy="19.64066"
   rx="3.07161"
   ry="1.60891"
   id="ellipse25" />
<linearGradient
   id="SVGID_00000074411448893173401000000013713554947691289987_"
   gradientUnits="userSpaceOnUse"
   x1="107.93177"
   y1="232.93652"
   x2="107.93177"
   y2="237.85429"
   gradientTransform="matrix(-1 0 0 0.50871 121.93398 -105.02132)">
	<stop
   offset="0"
   style="stop-color:#FDFDFF"
   id="stop26" />
	<stop
   offset="1"
   style="stop-color:#FCFEFF;stop-opacity:0"
   id="stop27" />
</linearGradient>
<ellipse
   opacity="0.2"
   fill="url(#SVGID_00000074411448893173401000000013713554947691289987_)"
   cx="14.0022"
   cy="14.72747"
   rx="2.24601"
   ry="1.25087"
   id="ellipse27" />
</svg>
