<?xml version="1.0" encoding="UTF-8" standalone="no"?>
<!-- Created with Inkscape (http://www.inkscape.org/) -->

<svg
   width="14mm"
   height="14mm"
   viewBox="0 0 14 14"
   version="1.1"
   id="svg24049"
   inkscape:version="1.2.2 (732a01da63, 2022-12-09)"
   sodipodi:docname="Neutron_Knob_Small.svg"
   xml:space="preserve"
   xmlns:inkscape="http://www.inkscape.org/namespaces/inkscape"
   xmlns:sodipodi="http://sodipodi.sourceforge.net/DTD/sodipodi-0.dtd"
   xmlns="http://www.w3.org/2000/svg"
   xmlns:svg="http://www.w3.org/2000/svg"><sodipodi:namedview
     id="namedview24051"
     pagecolor="#ffffff"
     bordercolor="#000000"
     borderopacity="0.25"
     inkscape:showpageshadow="2"
     inkscape:pageopacity="0.0"
     inkscape:pagecheckerboard="0"
     inkscape:deskcolor="#d1d1d1"
     inkscape:document-units="mm"
     showgrid="false"
     inkscape:zoom="5.6568543"
     inkscape:cx="29.256543"
     inkscape:cy="28.284271"
     inkscape:window-width="1360"
     inkscape:window-height="745"
     inkscape:window-x="211"
     inkscape:window-y="-8"
     inkscape:window-maximized="1"
     inkscape:current-layer="svg24049"
     showguides="true"
     inkscape:lockguides="false"><sodipodi:guide
       position="6.9999998,13.999999"
       orientation="-1,0"
       id="guide24057"
       inkscape:locked="false"
       inkscape:label=""
       inkscape:color="rgb(0,134,229)" /><sodipodi:guide
       position="0,6.9999998"
       orientation="0,1"
       id="guide24059"
       inkscape:locked="false"
       inkscape:label=""
       inkscape:color="rgb(0,134,229)" /></sodipodi:namedview><defs
     id="defs24046" /><g
     inkscape:label="fg"
     id="layer1"
     transform="matrix(0.7,0,0,0.7,-3.6507843e-8,0.03628386)"><path
       sodipodi:type="star"
       style="fill:#f5f5f5;fill-opacity:1;stroke:#ffffff;stroke-width:0.192;stroke-opacity:1"
       id="path5698"
       inkscape:flatsided="false"
       sodipodi:sides="12"
       sodipodi:cx="10"
       sodipodi:cy="10"
       sodipodi:r1="9.1125202"
       sodipodi:r2="9.9049129"
       sodipodi:arg1="-1.5707963"
       sodipodi:arg2="-1.3089969"
       inkscape:rounded="0.8"
       inkscape:randomized="0"
       d="m 10,0.88747978 c 2.082901,8e-8 0.551653,-0.9939854 2.56358,-0.4548909 2.011928,0.53909444 0.188835,0.63428682 1.99268,1.67573722 1.803845,1.0414506 0.974738,-0.5849904 2.447571,0.8878431 1.472834,1.4728333 -0.153607,0.6437259 0.887843,2.4475709 1.041451,1.8038452 1.136643,-0.019248 1.675737,1.9926802 C 20.106506,9.4483479 19.11252,7.9170995 19.11252,10 c 0,2.082901 0.993986,0.551653 0.454891,2.56358 -0.539094,2.011928 -0.634287,0.188835 -1.675737,1.99268 -1.041451,1.803845 0.58499,0.974738 -0.887843,2.447571 -1.472833,1.472834 -0.643726,-0.153607 -2.447571,0.887843 -1.803845,1.041451 0.01925,1.136643 -1.99268,1.675737 -2.011928,0.539095 -0.480679,-0.454891 -2.5635802,-0.454891 -2.082901,0 -0.5516525,0.993986 -2.5635803,0.454891 C 5.4244919,19.028317 7.2475846,18.933124 5.4437397,17.891674 3.6398946,16.850223 4.469002,18.476664 2.9961686,17.003831 1.5233354,15.530998 3.1497762,16.360105 2.1083259,14.55626 1.0668755,12.752415 0.97168306,14.575508 0.43258868,12.56358 -0.10650566,10.551652 0.8874797,12.082901 0.88747978,9.9999998 c 8e-8,-2.082901 -0.9939854,-0.5516525 -0.4548909,-2.5635803 C 0.97168332,5.4244919 1.0668757,7.2475846 2.1083261,5.4437397 3.1497767,3.6398946 1.5233357,4.469002 2.9961692,2.9961686 4.4690025,1.5233354 3.6398951,3.1497762 5.4437401,2.1083259 7.2475853,1.0668755 5.4244924,0.97168306 7.4364203,0.43258868 9.4483479,-0.10650566 7.9170995,0.8874797 10,0.88747978 Z"
       transform="matrix(0.793881,0,0,0.793881,2.06119,2.06119)" /><path
       id="path5698-7"
       style="fill:#c2c2c2;fill-opacity:1;stroke:none;stroke-width:0.152425;stroke-opacity:1"
       d="m 10.79375,2.7941779 c -0.136332,0.082396 -0.374134,0.1472779 -0.8480099,0.1472779 -0.367642,-10e-8 -0.593059,-0.03912 -0.73949,-0.095085 v 3.9165571 0.5565552 0.7663615 c 0,0.4397371 0.354013,0.7937501 0.7937499,0.7937501 0.439737,0 0.79375,-0.354013 0.79375,-0.7937501 V 7.3194831 6.7629279 c 0,-0.00687 1.72e-4,-0.013842 0,-0.02067 z" /><rect
       style="fill:#333333;fill-opacity:1;stroke:none;stroke-width:0.135953;stroke-dasharray:none;stroke-opacity:1"
       id="rect11466"
       width="1.0583333"
       height="6.3499999"
       x="9.4708338"
       y="2.2010159"
       ry="0.52916664" /></g></svg>
