<?xml version="1.0" encoding="UTF-8" standalone="no"?>
<!-- Created with Inkscape (http://www.inkscape.org/) -->

<svg
   width="14mm"
   height="14mm"
   viewBox="0 0 14 14"
   version="1.1"
   id="svg24049"
   inkscape:version="1.2.2 (732a01da63, 2022-12-09)"
   sodipodi:docname="Neutron_Knob_Small_bg.svg"
   xml:space="preserve"
   xmlns:inkscape="http://www.inkscape.org/namespaces/inkscape"
   xmlns:sodipodi="http://sodipodi.sourceforge.net/DTD/sodipodi-0.dtd"
   xmlns:xlink="http://www.w3.org/1999/xlink"
   xmlns="http://www.w3.org/2000/svg"
   xmlns:svg="http://www.w3.org/2000/svg"><sodipodi:namedview
     id="namedview24051"
     pagecolor="#ffffff"
     bordercolor="#000000"
     borderopacity="0.25"
     inkscape:showpageshadow="2"
     inkscape:pageopacity="0.0"
     inkscape:pagecheckerboard="0"
     inkscape:deskcolor="#d1d1d1"
     inkscape:document-units="mm"
     showgrid="false"
     inkscape:zoom="5.6568543"
     inkscape:cx="29.256543"
     inkscape:cy="28.284271"
     inkscape:window-width="1360"
     inkscape:window-height="745"
     inkscape:window-x="211"
     inkscape:window-y="-8"
     inkscape:window-maximized="1"
     inkscape:current-layer="svg24049"
     showguides="true"
     inkscape:lockguides="false"><sodipodi:guide
       position="6.9999998,13.999999"
       orientation="-1,0"
       id="guide24057"
       inkscape:locked="false"
       inkscape:label=""
       inkscape:color="rgb(0,134,229)" /><sodipodi:guide
       position="0,6.9999998"
       orientation="0,1"
       id="guide24059"
       inkscape:locked="false"
       inkscape:label=""
       inkscape:color="rgb(0,134,229)" /></sodipodi:namedview><defs
     id="defs24046"><linearGradient
       inkscape:collect="always"
       id="linearGradient5642"><stop
         style="stop-color:#bdbec7;stop-opacity:1;"
         offset="0"
         id="stop5638" /><stop
         style="stop-color:#ebedf5;stop-opacity:1;"
         offset="1"
         id="stop5640" /></linearGradient><linearGradient
       inkscape:collect="always"
       id="linearGradient4128"><stop
         style="stop-color:#e9eaf5;stop-opacity:1;"
         offset="0"
         id="stop4124" /><stop
         style="stop-color:#d0d0db;stop-opacity:1;"
         offset="1"
         id="stop4126" /></linearGradient><linearGradient
       inkscape:collect="always"
       xlink:href="#linearGradient4128"
       id="linearGradient4130"
       x1="0"
       y1="10"
       x2="20"
       y2="10"
       gradientUnits="userSpaceOnUse"
       gradientTransform="matrix(0.99049122,0,0,0.99049125,0.09508754,-19.904913)" /><linearGradient
       inkscape:collect="always"
       xlink:href="#linearGradient5642"
       id="linearGradient5644"
       x1="1.8718357"
       y1="10"
       x2="18.128164"
       y2="10"
       gradientUnits="userSpaceOnUse"
       gradientTransform="translate(-20)" /></defs><g
     inkscape:label="bg"
     id="layer1-9"
     transform="matrix(0.7,0,0,0.7,-3.6507843e-8,0.03628386)"><circle
       style="fill:url(#linearGradient4130);fill-opacity:1;stroke:#f5f5f5;stroke-width:0.190174;stroke-opacity:1"
       id="path4091"
       cx="10"
       cy="-10"
       transform="rotate(90)"
       r="9.9049129"
       inkscape:label="bg" /><circle
       style="fill:url(#linearGradient5644);fill-opacity:1;stroke:none;stroke-width:0.192;stroke-opacity:1"
       id="path5636"
       cx="-10"
       cy="10"
       r="8.1281643"
       transform="rotate(-90)"
       inkscape:label="bg2" /></g><path
     style="fill:none;stroke-width:0.439999;stroke-linecap:round;stroke-linejoin:round"
     d="m 3.6950012,-2.1515197 c -0.093545,0 -0.1880288,-0.013229 -0.280633,0 -0.3181807,0.045454 -0.6243185,0.1531989 -0.9354434,0.2338609 -1.60343944,0.4157065 -3.16906099,1.10186309 -4.5836723,1.96443097 -1.2090537,0.7372279 -1.8001053,1.12887353 -2.3386083,2.38538053 -0.068192,0.1591147 -0.219383,0.4738382 -0.2338607,0.6548103 -0.022379,0.2797392 0,0.5612659 0,0.8418989 0,0.1870887 -0.023207,0.3756221 0,0.5612662 0.023921,0.1913572 0.1012446,0.3724187 0.1403164,0.5612659 0.054529,0.2635557 0.1058747,0.5282022 0.1403165,0.7951269 0.028003,0.2170268 0.011927,0.438776 0.046772,0.6548104 0.013248,0.082128 0.3207396,1.3752594 0.3741775,1.4967092 0.076645,0.1741927 0.2159809,0.3134421 0.3274052,0.4677217 0.091282,0.1263907 0.1666562,0.2677988 0.2806329,0.3741772 0.095123,0.088781 0.8678843,0.5804551 1.0289877,0.6548104 0.2899506,0.1338233 0.7468847,0.1600279 0.8886711,0.5144942 0.1950613,0.487653 0.1403165,1.03167 0.1403165,1.543481 0,0.109135 0.020112,0.220139 0,0.327405 -0.097672,0.520918 -0.5926194,1.285977 -0.2338608,1.824115 0.3387181,0.508077 1.00422525,0.708919 1.5434815,0.888671 0.42139682,0.140465 0.86267964,0.323937 1.2628485,0.514494 0.1763749,0.08399 0.3397664,0.193269 0.5144938,0.280633 0.7609937,0.380497 1.5477949,0.719539 2.3386083,1.028988 0.1887437,0.07386 0.3673679,0.174848 0.5612659,0.23386 0.5227019,0.159084 1.1905501,0.185319 1.7305703,0.140317 1.6624511,-0.138538 1.769002,-1.323325 2.9934188,-2.057975 0.1195752,-0.07175 0.2511351,-0.121467 0.3741772,-0.187089 0.1109085,-0.05915 0.2102556,-0.141531 0.3274052,-0.187089 0.165675,-0.06443 0.346712,-0.08159 0.514494,-0.140316 0.14493,-0.05073 0.275846,-0.136861 0.420949,-0.187089 0.509895,-0.176502 1.099951,-0.269342 1.590254,-0.514494 0.452557,-0.226278 0.799667,-0.631362 1.262848,-0.841899 0.07237,-0.0329 0.156737,-0.02749 0.233861,-0.04677 0.261331,-0.06533 0.346843,-0.120225 0.608039,-0.140316 0.447179,-0.0344 0.198083,0.04783 0.608038,-0.04677 0.333682,-0.077 0.644324,-0.217278 0.982215,-0.280633 0.247087,-0.04633 0.501844,-0.04424 0.748355,-0.09354 0.96363,-0.192726 1.864172,-0.483031 2.712785,-0.982215 0.473526,-0.278545 1.129464,-0.676641 1.403166,-1.1693048 C 21.477948,9.3934168 21.601579,8.4408064 21.515197,7.8577241 21.467784,7.5376888 21.197694,6.7545537 21.094247,6.454559 20.969367,6.092405 20.780242,5.5258575 20.579753,5.1917105 20.459433,4.9911764 20.296354,4.8195761 20.158804,4.6304445 20.046869,4.4765348 19.957833,4.3049615 19.831399,4.1627229 19.556012,3.8529125 19.087188,3.4520854 18.708867,3.2740518 17.970406,2.9265406 17.149595,2.8608477 16.370258,2.6660136 16.226768,2.6301409 16.091819,2.5652833 15.949309,2.525697 15.810813,2.487226 15.665556,2.4750265 15.528359,2.4321527 15.032487,2.2771925 14.550303,1.9573288 14.03165,1.8708867 c -0.170723,-0.028454 -0.36819,0.0021 -0.514494,0.093544 -0.05334,0.033338 -0.358287,0.3900679 -0.467721,0.280633 -0.003,-0.00296 -0.0025,-0.6867049 0,-0.7015825 0.01621,-0.097263 0.05562,-0.1896136 0.09354,-0.280633 0.188129,-0.45150941 0.533646,-0.80932875 0.795127,-1.21607633 0.227494,-0.35388092 0.115812,-0.27706448 0.374177,-0.56126599 0.163146,-0.17946116 0.362984,-0.32510605 0.514494,-0.51449388 0.126987,-0.1587335 0.210833,-0.3479618 0.327405,-0.5144938 0.228638,-0.3266257 0.561266,-0.5892144 0.561266,-1.0289877 0,-0.2512387 -0.08898,-0.1880197 -0.280633,-0.3274051 -0.09848,-0.07162 -0.171721,-0.1794047 -0.280633,-0.233861 -0.485105,-0.2425522 -1.478637,-0.3495953 -2.011203,-0.3274049 -0.562698,0.023445 -1.143153,0.1229447 -1.683798,0.2806329 -0.364473,0.1063046 -0.711288,0.2678729 -1.07576,0.3741772 -0.185133,0.053997 -0.379246,0.07661 -0.561266,0.1403165 -0.1316188,0.046067 -0.2442115,0.1365465 -0.3741774,0.1870888 -0.5193493,0.2019691 -1.088862,0.364941 -1.6370258,0.4677216 -0.8189034,0.1535444 -1.8901725,0.2306466 -2.7127856,0.093544 -0.2741689,-0.045695 -0.055282,0.032193 -0.2806329,0 -0.028408,-0.00406 -0.7814403,-0.1734019 -0.7951269,-0.1870887 -0.011025,-0.011024 0.011025,-0.035748 0,-0.046772 -0.07717,-0.07717 -0.2182701,0 -0.3274052,0 z"
     id="path24308" /></svg>
